<?xml version="1.0" encoding="utf-8"?>
<!-- Generator: Adobe Illustrator 17.0.0, SVG Export Plug-In . SVG Version: 6.00 Build 0)  -->
<!DOCTYPE svg PUBLIC "-//W3C//DTD SVG 1.1//EN" "http://www.w3.org/Graphics/SVG/1.1/DTD/svg11.dtd">
<svg version="1.1" id="Layer_1" xmlns="http://www.w3.org/2000/svg" xmlns:xlink="http://www.w3.org/1999/xlink" x="0px" y="0px"
	 width="394px" height="394px" viewBox="0 0 394 394" enable-background="new 0 0 394 394" xml:space="preserve">
<g>
	<g>
		<path fill="#FFFFFF" d="M225.847,18.28c-14.766-8.525-38.928-8.525-53.694,0L56.097,85.141C41.331,93.666,29,114.591,29,131.641
			v133.719c0,17.05,12.331,37.975,27.097,46.5l39.985,23.013c14.766,8.525,33.539,3.609,41.642-10.923c0,0,0.031,0,10.303-9.555
			c14.341-13.343,24.674-29.217,32.479-46.934c0.82-1.862,1.8-4.172,1.391-5.976c-2.27-9.968-4.26-20.084-7.685-29.673
			c-2.919-8.175-13.679-13.317-21.521-4.771c-8.485,9.246-17.251,18.265-25.2,27.952c-5.574,6.791-5.574,6.791-5.574,6.791
			c-8.449,2.342-10.801,1.311-5.226-2.292c5.575-3.602,12.264-18.227,7.697-16.79s-10.962,3.596-4.297,1.678
			s11.49-16.754,2.747-16.896c0,0,0,0-6.66,5.631c-6.948,5.878-6.948,5.878-6.948,5.878c-8.307-2.831-6.908-5.078,3.109-4.993
			c0,0,0,0,7.676-7.474c2.956-2.879,9.235-3.33,13.958-3.209c10.617,0.269,10.617,0.269,10.617,0.269
			c7.932-6.755,9.969-15.028,4.527-18.386c0,0,0,0-6.413,2.633c-8.265,3.394-16.187,0.446-23.55-3.355
			c-9.179-4.74-18.035-8.184-29.081-8.131c-7.697,0.035-7.697,0.035-7.697,0.035c-8.492-5.411-15.262-10.223-15.045-10.693
			s5.284,0.51,10.778,3.226c0,0,0,0,5.08,2.274c2.516,1.126,5.473,2.968,7.814,2.482c11.738-2.433,21.689,2.071,31.379,7.392
			c10.984,6.031,20.782,2.113,30.572-2.846c0.867-0.442,0.867-0.442,0.867-0.442c0.979-1.673-7.579-4.23-19.017-5.682
			s-34.65-12.716-29.569-11.166c0,0,0,0,4.677,1.179c4.741,1.196,9.524,2.314,14.349,3.078c5.053,0.801,5.053,0.801,5.053,0.801
			c5.906,0.516,7.342-2.728,3.191-7.208s-10.104-10.373,0.785-9.649c0,0,0,0,5.611,7.893c5.411,7.607,13.389,9.986,21.451,12.06
			c7.289,1.875,11.346-2.939,8.392-9.988c-2.399-5.72-5.93-10.378-12.76-12.883c-13.94-5.107-27.375-11.601-40.97-17.633
			c-1.35-0.598-1.35-0.598-1.35-0.598c-0.854-0.996,4.861,0.503,12.7,3.332s27.294,5.585,24.899-0.488c0,0,0,0-6.543-5.675
			c-5.76-4.998-5.76-4.998-5.76-4.998c-5.445-6.525-9.698-12.048-9.45-12.273s3.74,1.908,7.213,5.239s11.587,8.644,10.319,4.405
			s-1.304-11.28,5.2-7.68c0,0,0,0,1.537,7.62c0.879,4.349,1.811,8.695,2.931,12.986c3.092,11.841,3.092,11.841,3.092,11.841
			c14.557,0.801,20.51-9.728,13.23-23.399s-30.793-29.96-16.298-23.71c0,0,0,0,7.036,9.878c7.815,10.976,7.815,10.976,7.815,10.976
			c8.712,11.988,16.276,21.675,16.809,21.525s2.356-5.211,2.865-10.918c0,0,0,0-1.939-4.035c-3.87-8.05-8.393-16.311-14.562-22.605
			c-8.909-9.094-8.909-9.094-8.909-9.094c-6.756-12.264-9.539-18.499-6.186-13.854s13.052,11.317,14.011,4.38
			s3.62-24.451,3.911-24.438s0.868,5.731,0.636,12.677c0,0,0,0-1.227,6.112c-1.662,8.278-0.902,15.507,4.286,22.526
			c4.569,6.18,8.548,12.871,12.096,19.697c2.088,4.016,4.179,8.829,3.872,13.113c-0.526,7.409-0.526,7.409-0.526,7.409
			c6.359,2.951,17.931-3.236,25.714-13.75c0,0,0,0,6.873-10.17c1.556-2.302,1.868-5.881,1.715-8.819
			c-0.653-12.577-1.569-25.145-2.672-37.69c-0.312-3.569-0.312-3.569-0.312-3.569c-1.148-3.854-1.733-7.076-1.301-7.16
			s2.515,4.953,3.671,11.382s5.538,22.529,7.01,20.606s5.375-6.704,5.577-6.572s-1.036,3.301-3.2,6.75c0,0,0,0-1.022,3.421
			c-1.358,4.537-1.746,9.362-2.585,14.059c-0.871,4.872-0.871,4.872-0.871,4.872c-1.039,5.605,1.108,8.013,4.771,5.352
			c0,0,0,0,3.57-2.01c3.586-2.018,7.576-3.31,11.197-5.273c3.775-2.052,3.775-2.052,3.775-2.052
			c3.917-2.596,5.296-1.319,3.063,2.838c0,0,0,0-4.847,1.768c-13.264,4.841-23.461,14.096-33.069,23.915
			c-4.615,4.717-3.638,11.823,1.173,17.035c5.621,6.09,11.469,7.366,17.363,3.835c2.202-1.32,4.317-3.001,6.712-3.745
			c11.552-3.585,18.761-11.834,24.331-21.958c5.468-9.934,5.468-9.934,5.468-9.934c10.665-5.068,14.411-5.127,8.324-0.131
			s-13.397,22.845-8.342,20.975s15.757-4.447,11.871-1.318c0,0,0,0-3.654,1.688c-7.838,3.621-16.109,6.304-23.925,9.969
			c-5.89,2.76-11.544,6.157-16.9,9.855c-2.326,1.606-4.17,4.455-5.304,7.134c-2.809,6.626-0.257,11.006,6.92,10.688
			c8.355-0.37,16.645-2.164,24.972-3.286c2.771-0.373,5.608-1.031,8.341-0.773c8.515,0.804,15.42-2.099,21.729-7.694
			c9.666-8.575,9.666-8.575,9.666-8.575c12.398,2.782,20.199,4.949,17.336,4.814c0,0,0,0-2.603-0.151
			c-8.983-0.519-16.53,2.122-24.052,7.57c-6.653,4.818-6.653,4.818-6.653,4.818c-9.215,3.266-12.129,8.802-6.476,12.302
			s20.917,13.15,20.837,13.346s-8.378-2.727-18.264-6.932c0,0,0,0-7.784-5.517c-13.403-9.502-26.135-3.206-38.719,0.379
			c-6.73,1.92-7.649,9.283-2.252,14.08c5.327,4.735,11.532,8.645,17.788,12.132c6.914,3.853,14.48,6.526,21.448,10.297
			c3.248,1.755,3.248,1.755,3.248,1.755c3.604,3.69,2.404,4.549-2.667,1.908s-17.85-8.905-18.142-8.578s0.467,3.982,2.335,7.393
			s4.218,7.196,0.902,0.524s-22.028-5.985-22.647,3.621c-0.62,9.606-2.437,34.658-2.683,34.65s-0.843-9.001-0.783-19.965
			c0,0,0,0-0.152-9.966c-0.092-6.021,0.048-12.158-1.062-18.028c-1.516-8.018-6.612-10.577-14.552-8.024
			c-12.723,4.091-19.489,14.436-24.133,25.708c-7.104,17.246-14.104,34.206-30.201,45.362c-6.527,4.523-13.223,8.912-19.211,14.09
			c-10.822,9.358-10.822,9.358-10.822,9.358c-8.094,14.301-2.635,32.977,12.13,41.502l17.462,10.082
			c14.766,8.525,38.928,8.525,53.694,0l115.556-66.86c14.766-8.525,26.597-29.45,26.597-46.5V131.641
			c0-17.05-11.831-37.975-26.597-46.5L225.847,18.28z"/>
	</g>
</g>
</svg>
